<svg width="52" height="52" viewBox="0 0 52 52" fill="none" xmlns="http://www.w3.org/2000/svg">
<rect width="52" height="52" rx="26" fill="url(#paint0_linear_4_1525)"/>
<path d="M24.8333 19C26.122 19 27.1667 17.9554 27.1667 16.6667C27.1667 15.378 26.122 14.3334 24.8333 14.3334C23.5447 14.3334 22.5 15.378 22.5 16.6667C22.5 17.9554 23.5447 19 24.8333 19Z" stroke="white" stroke-width="2.33333" stroke-linecap="round" stroke-linejoin="round"/>
<path d="M33.0001 23.6667C34.2887 23.6667 35.3334 22.622 35.3334 21.3333C35.3334 20.0447 34.2887 19 33.0001 19C31.7114 19 30.6667 20.0447 30.6667 21.3333C30.6667 22.622 31.7114 23.6667 33.0001 23.6667Z" stroke="white" stroke-width="2.33333" stroke-linecap="round" stroke-linejoin="round"/>
<path d="M35.3333 33C36.622 33 37.6667 31.9554 37.6667 30.6667C37.6667 29.378 36.622 28.3334 35.3333 28.3334C34.0447 28.3334 33 29.378 33 30.6667C33 31.9554 34.0447 33 35.3333 33Z" stroke="white" stroke-width="2.33333" stroke-linecap="round" stroke-linejoin="round"/>
<path d="M22.5001 23.6666C23.2662 23.6666 24.0247 23.8175 24.7324 24.1107C25.4402 24.4038 26.0832 24.8335 26.6249 25.3752C27.1666 25.9168 27.5963 26.5599 27.8894 27.2676C28.1826 27.9754 28.3334 28.7339 28.3334 29.5V33.5833C28.3331 34.5592 27.9833 35.5027 27.3474 36.2429C26.7115 36.9831 25.8315 37.4711 24.8668 37.6185C23.9021 37.7658 22.9166 37.5629 22.0886 37.0463C21.2607 36.5297 20.6451 35.7337 20.3534 34.8025C19.8557 33.1963 18.8057 32.1444 17.2034 31.6466C16.2727 31.3551 15.477 30.74 14.9604 29.9127C14.4438 29.0854 14.2404 28.1004 14.387 27.1362C14.5336 26.1719 15.0205 25.2919 15.7597 24.6555C16.4989 24.0191 17.4414 23.6683 18.4168 23.6666H22.5001Z" stroke="white" stroke-width="2.33333" stroke-linecap="round" stroke-linejoin="round"/>
<defs>
<linearGradient id="paint0_linear_4_1525" x1="0" y1="0" x2="52" y2="52" gradientUnits="userSpaceOnUse">
<stop stop-color="#2DD4BF"/>
<stop offset="1" stop-color="#38BDF8"/>
</linearGradient>
</defs>
</svg>
